<?xml version="1.0" encoding="utf-8"?>
<svg viewBox="0.3144 49.4733 498.8195 365.1311" xmlns="http://www.w3.org/2000/svg">
  <defs>
    <clipPath id="36b7cfce45">
      <path d="M 154 119 L 187 119 L 187 154 L 154 154 L 154 119 Z" clip-rule="nonzero"/>
      <path d="M 154 119" clip-rule="nonzero"/>
    </clipPath>
    <clipPath id="1a2f4522fc">
      <path d="M 149.558594 122.84375 L 185.566406 115.488281 L 192.617188 150.027344 L 156.609375 157.378906 L 149.558594 122.84375 Z" clip-rule="nonzero"/>
      <path d="M 149.558594 122.84375" clip-rule="nonzero"/>
    </clipPath>
    <clipPath id="06febaf925">
      <path d="M 149.558594 122.84375 L 185.566406 115.488281 L 192.617188 150.027344 L 156.609375 157.378906 L 149.558594 122.84375 Z" clip-rule="nonzero"/>
      <path d="M 149.558594 122.84375" clip-rule="nonzero"/>
    </clipPath>
    <clipPath id="752c398994">
      <path d="M 131 135 L 156 135 L 156 153 L 131 153 L 131 135 Z" clip-rule="nonzero"/>
      <path d="M 131 135" clip-rule="nonzero"/>
    </clipPath>
    <clipPath id="85ff860f06">
      <path d="M 131.136719 135.191406 L 154.257812 132.757812 L 156.535156 154.390625 L 133.410156 156.824219 L 131.136719 135.191406 Z" clip-rule="nonzero"/>
      <path d="M 131.136719 135.191406" clip-rule="nonzero"/>
    </clipPath>
    <clipPath id="d8a41d93d9">
      <path d="M 154.199219 132.765625 L 131.078125 135.199219 L 133.351562 156.828125 L 156.476562 154.394531 L 154.199219 132.765625 Z" clip-rule="nonzero"/>
      <path d="M 154.199219 132.765625" clip-rule="nonzero"/>
    </clipPath>
  </defs>
  <g clip-path="url(#36b7cfce45)" transform="matrix(9.011556625366211, 0, 0, 10.80184555053711, -1181.237548828125, -1243.8126220703125)" style="">
    <g clip-path="url(#1a2f4522fc)">
      <g clip-path="url(#06febaf925)">
        <path fill="#fff" d="M 178.78125 123.289062 C 161.789062 126.679688 154.3125 136.5625 156.925781 153.332031 C 156.960938 153.539062 156.660156 153.613281 156.589844 153.414062 C 154.722656 148.140625 153.859375 143.164062 154.34375 138.589844 C 155.9375 123.484375 172.683594 118.125 185.753906 120.132812 C 186.40625 120.234375 186.691406 121 186.269531 121.507812 C 178.355469 131.117188 183.925781 151.796875 158.996094 147.433594 C 160.285156 135.359375 166.238281 126.828125 178.78125 123.289062 " fill-opacity="1" fill-rule="evenodd"/>
      </g>
    </g>
  </g>
  <g clip-path="url(#752c398994)" transform="matrix(9.17007064819336, 0, 0, 10.80184555053711, -1205.927734375, -1243.8126220703125)" style="">
    <g clip-path="url(#85ff860f06)">
      <g clip-path="url(#d8a41d93d9)">
        <path fill="#fff" d="M 136.644531 138.511719 C 147.542969 137.316406 153.921875 141.726562 155.519531 152.074219 C 155.539062 152.203125 155.734375 152.191406 155.738281 152.058594 C 155.867188 148.609375 155.445312 145.523438 154.289062 142.921875 C 150.472656 134.339844 139.347656 134.328125 131.839844 137.964844 C 131.464844 138.144531 131.4375 138.648438 131.789062 138.871094 C 138.382812 143.035156 138.933594 156.238281 153.152344 148.996094 C 150.09375 142.136719 144.886719 138.238281 136.644531 138.511719 " fill-opacity="1" fill-rule="evenodd"/>
      </g>
    </g>
  </g>
</svg>